<svg width="433" height="400" viewBox="0 0 433 400" fill="none" xmlns="http://www.w3.org/2000/svg">
<g filter="url(#filter0_d_6580_43)">
<path d="M284.518 85.2428C300.718 115.199 307.889 140.484 337.102 172.639C366.316 204.794 417.837 244.095 427.398 286.144C436.693 327.918 404.293 372.99 362.332 386.731C320.371 400.473 268.849 383.433 220.248 379.586C171.648 375.463 125.968 384.808 85.0695 370.791C44.1706 356.5 8.31772 318.574 4.33406 277.074C0.615984 235.3 28.7672 189.953 47.3576 144.606C66.2135 99.2592 75.5087 54.4619 102.332 27.8033C129.155 1.14481 173.241 -7.1001 208.032 6.36658C243.088 19.8333 268.318 55.0115 284.518 85.2428Z" fill="white"/>
<path d="M102.685 28.1582C129.362 1.64489 173.237 -6.56555 207.852 6.83301H207.853C242.73 20.2311 267.887 55.2661 284.077 85.4785L284.078 85.4805C300.235 115.356 307.465 140.76 336.732 172.975C344.048 181.027 352.757 189.523 361.842 198.384C370.931 207.249 380.4 216.482 389.254 226.021C406.973 245.113 422.16 265.366 426.91 286.251V286.252C431.522 306.977 425.796 328.551 413.671 346.672C401.546 364.793 383.043 379.422 362.176 386.256C341.305 393.091 318.026 392.28 293.842 389.259C281.752 387.748 269.457 385.689 257.129 383.764C244.807 381.84 232.459 380.051 220.289 379.088H220.29C195.961 377.024 172.342 378.33 149.77 378.398C127.527 378.466 106.273 377.335 86.1875 370.642L85.2314 370.318C44.7899 356.186 9.35063 318.875 4.93066 277.993L4.83203 277.026C2.98471 256.261 9.05601 234.572 17.9443 212.366C22.3873 201.266 27.5276 190.052 32.7236 178.77C37.9178 167.491 43.1669 156.143 47.8193 144.795C52.538 133.447 56.6586 122.135 60.6006 111.143C64.5443 100.145 68.3084 89.4708 72.3213 79.3809C80.3486 59.1971 89.3482 41.4127 102.685 28.1582Z" stroke="#FFD93D"/>
</g>
<defs>
<filter id="filter0_d_6580_43" x="0" y="0" width="433" height="400" filterUnits="userSpaceOnUse" color-interpolation-filters="sRGB">
<feFlood flood-opacity="0" result="BackgroundImageFix"/>
<feColorMatrix in="SourceAlpha" type="matrix" values="0 0 0 0 0 0 0 0 0 0 0 0 0 0 0 0 0 0 127 0" result="hardAlpha"/>
<feOffset dy="4"/>
<feGaussianBlur stdDeviation="2"/>
<feComposite in2="hardAlpha" operator="out"/>
<feColorMatrix type="matrix" values="0 0 0 0 0 0 0 0 0 0 0 0 0 0 0 0 0 0 0.25 0"/>
<feBlend mode="normal" in2="BackgroundImageFix" result="effect1_dropShadow_6580_43"/>
<feBlend mode="normal" in="SourceGraphic" in2="effect1_dropShadow_6580_43" result="shape"/>
</filter>
</defs>
</svg>
