<svg width="455" height="420" viewBox="0 0 455 420" fill="none" xmlns="http://www.w3.org/2000/svg">
<g filter="url(#filter0_d_6580_38)">
<path d="M366.875 101.743C405.841 148.436 436.746 189.844 447.159 240.354C457.572 290.865 447.495 350.48 408.529 381.609C369.562 413.031 301.371 416.262 242.25 408.333C183.129 400.404 133.077 381.609 88.7362 350.186C44.7312 318.764 6.43675 275.007 4.08534 229.489C2.06984 183.677 35.9974 136.396 80.3383 89.7028C124.679 43.0096 178.762 -2.80266 229.821 0.134019C280.544 3.36437 327.909 55.0499 366.875 101.743Z" fill="white"/>
<path d="M152.837 26.7236C178.242 9.8281 204.417 -0.826374 229.789 0.631836V0.632812C254.996 2.2381 279.418 15.8894 302.438 35.0244C325.452 54.1548 347.01 78.7189 366.491 102.063C405.46 148.759 436.284 190.08 446.669 240.455C457.063 290.872 446.975 350.255 408.217 381.218L408.215 381.22C388.832 396.85 362.145 405.493 332.884 409.231C303.629 412.969 271.847 411.797 242.316 407.837C184.188 400.041 134.857 381.732 91.1045 351.239L89.0254 349.778C67.054 334.089 46.5209 315.329 31.1914 294.824C16.0995 274.637 6.07022 252.785 4.64551 230.523L4.58496 229.463C3.58408 206.69 11.5145 183.515 25.2588 160.18C39.0034 136.844 58.5414 113.382 80.7012 90.0469C102.862 66.7109 127.437 43.6157 152.837 26.7236Z" stroke="#FFD93D"/>
</g>
<defs>
<filter id="filter0_d_6580_38" x="0" y="0" width="455" height="420" filterUnits="userSpaceOnUse" color-interpolation-filters="sRGB">
<feFlood flood-opacity="0" result="BackgroundImageFix"/>
<feColorMatrix in="SourceAlpha" type="matrix" values="0 0 0 0 0 0 0 0 0 0 0 0 0 0 0 0 0 0 127 0" result="hardAlpha"/>
<feOffset dy="4"/>
<feGaussianBlur stdDeviation="2"/>
<feComposite in2="hardAlpha" operator="out"/>
<feColorMatrix type="matrix" values="0 0 0 0 0 0 0 0 0 0 0 0 0 0 0 0 0 0 0.25 0"/>
<feBlend mode="normal" in2="BackgroundImageFix" result="effect1_dropShadow_6580_38"/>
<feBlend mode="normal" in="SourceGraphic" in2="effect1_dropShadow_6580_38" result="shape"/>
</filter>
</defs>
</svg>
